<?xml version="1.0" encoding="UTF-8"?>
<svg id="Camada_1" data-name="Camada 1" xmlns="http://www.w3.org/2000/svg" viewBox="0 0 851 221">
  <defs>
    <style>
      .cls-1 {
        fill-rule: evenodd;
      }

      .cls-1, .cls-2 {
        fill: #d3071a;
        stroke-width: 0px;
      }
    </style>
  </defs>
  <g>
    <path class="cls-2" d="m257.31,68.55v39.54h69.24v27.78h-69.24v54.5h-34.62V40.77h113.05v27.78h-78.43Z"/>
    <path class="cls-2" d="m356.89,31.8h33.34v158.57h-33.34V31.8Z"/>
    <path class="cls-2" d="m522.94,124.76v65.61h-31.2v-14.32c-6.2,10.47-18.17,16.03-35.05,16.03-26.93,0-42.96-14.96-42.96-34.83s14.32-34.41,49.37-34.41h26.5c0-14.32-8.55-22.65-26.5-22.65-12.18,0-24.79,4.06-33.13,10.69l-11.97-23.29c12.61-8.98,31.2-13.89,49.58-13.89,35.05,0,55.35,16.24,55.35,51.08Zm-33.34,29.28v-11.75h-22.87c-15.6,0-20.52,5.77-20.52,13.46,0,8.33,7.05,13.89,18.81,13.89,11.11,0,20.73-5.13,24.58-15.6Z"/>
  </g>
  <g>
    <path class="cls-2" d="m601.1,40.77h50.44v149.6h-50.44V40.77Z"/>
    <path class="cls-2" d="m675.89,40.77h73.73c50.01,0,84.42,28.42,84.42,74.8s-34.41,74.8-84.42,74.8h-73.73V40.77Zm71.59,110.27c21.16,0,35.69-12.61,35.69-35.48s-14.53-35.48-35.69-35.48h-21.16v70.95h21.16Z"/>
  </g>
  <path class="cls-1" d="m68.67,165.42c-.01,11.18-2.6,16.34-7.29,19.76,5.88,6.12,21.21,8.81,33.76,5.15-8.11-5.02-10.79-13.03-10.83-23.02-5.25-.02-10.55-.61-15.65-1.89m56.58,2.13v-10.11c-4.33-6.55-9.47-14.14-15.61-19.07v27.45c0,9.94-2.62,16.11-7.35,19.36,5.88,6.12,21.21,8.81,33.76,5.15-8.26-5.02-10.8-14.33-10.8-22.78Zm48.42-78.71c17.48-8.77,14.2-30.65,12.01-36.2-2.87,5.15-8.15,8.42-17.94,8.42h-11.4c2.43,3.77,4.67,7.92,6.76,12.44,9.14.04,11.79,9.71,10.57,15.34Zm-28.96,39.86c9.58,0,13.37,6.49,12.58,15.32,16.87-8.9,14.01-28.65,11.82-34.2-2.74,3.45-6.56,6.45-15.85,6.45h-28.02v-42.77h8.49c-1.17-4.68-3.22-8.83-5.7-12.44h-3.66c-7.12,0-13.87-1.02-20.89-3.68l6.16,16.12v42.69c7.47,2.45,12.57,6.88,18.07,12.51h17.01Zm-16.15-15.82h12.75c14.19-14.4,11.71-32.47,21.28-32.47-13.37-33.1-31.93-49.11-73.33-48.05-12.49.17-18.44.26-28.73-3.43l7.48,19.55c7.1-2.62,16.1-4.53,25.22-4.53,26.98,0,45.36,14.76,45.36,41.81,0,10.09-3.15,20.03-10.03,27.12Zm-86.72-6.52c0,23.5,15.05,42.47,38.67,45.44,8.5,1.07,17.95-.14,25.69-3.71v12.17c-8.47,2.8-16.74,3.99-25.09,3.54-33.99-1.85-56.84-28.35-64.16-60.09,6.37,0,8.81-9.1,14.37-19.29,8.17-14.97,21.94-27.38,38.12-32.94,6.86-2.36,15.27-4.01,23.78-4.01,2.11,0,4.16.09,6.16.27,2.88,7.17,2.49,23.6-1.01,31.23-3.78-10.15-12.08-14.36-20.83-14.36-21.81,0-35.7,20.22-35.7,41.76Zm42.46-37.34v46.28c11.2,0,24.72,1.75,34.74,10.05,14.57,12.07,22.53,27.69,30.74,36.65,9,9.82,20.26,8.96,29.94,1.94-1.24,14.43-17.03,25.61-24.18,27.03-12.22-8.53-25.03-33.37-34.95-46.06-9.41-12.04-17.8-16.87-36.3-16.87v20.72c-5.35-.19-10.69-1.51-15.65-3.54v-75.92c5.26-1.47,10.37-1.78,15.65-.28Z"/>
  <rect class="cls-2" x="538.19" y="122.2" width="45.01" height="18.59"/>
</svg>